<?xml version="1.0" encoding="UTF-8"?>
<svg xmlns="http://www.w3.org/2000/svg" viewBox="0 0 800 800" role="img" aria-label="OMP">
  <defs>
    <linearGradient id="omp-bg" x1="120" y1="80" x2="680" y2="720" gradientUnits="userSpaceOnUse">
      <stop offset="0" stop-color="#ff7a18"/>
      <stop offset="0.55" stop-color="#e05735"/>
      <stop offset="1" stop-color="#7c3aed"/>
    </linearGradient>
  </defs>
  <rect width="800" height="800" rx="168" fill="url(#omp-bg)"/>
  <circle cx="400" cy="400" r="260" fill="none" stroke="#fff" stroke-width="56" opacity="0.92"/>
  <path fill="#fff" d="M226 463c0-95 67-164 159-164 41 0 78 15 105 41 22-25 55-41 93-41 75 0 128 54 128 135v137h-73V440c0-46-26-74-67-74-42 0-69 29-69 75v130h-73V440c0-46-26-74-67-74-43 0-70 29-70 75v130h-73V463Z"/>
  <path fill="#fff" d="M118 438c0-78 61-140 143-140 81 0 142 62 142 140s-61 140-142 140c-82 0-143-62-143-140Zm73 0c0 40 29 72 70 72 40 0 69-32 69-72s-29-72-69-72c-41 0-70 32-70 72Z"/>
</svg>
